<?xml version="1.0" encoding="UTF-8"?>
<svg width="224px" height="48px" viewBox="0 0 224 48" version="1.1" xmlns="http://www.w3.org/2000/svg" xmlns:xlink="http://www.w3.org/1999/xlink">
    <!-- Generator: Sketch 58 (84663) - https://sketch.com -->
    <title>logo</title>
    <desc>Created with Sketch.</desc>
    <g id="Page-1" stroke="none" stroke-width="1" fill="none" fill-rule="evenodd">
        <g id="logo">
            <g id="Group" fill="#FF5600">
                <g id="Group-16" transform="translate(0.000000, 0.187500)">
                    <path d="M58.7422127,11.8420787 C58.4590502,18.7314913 50.3015067,28.4604674 45.9909569,35.4360644 C44.1531007,38.4909864 43.8351757,40.47323 46.9783131,40.3016838 C54.4899528,39.4843139 57.5299373,38.6568147 63.28125,35.8239975 C58.7422127,42.4493185 38.2537697,55.2393717 38.1148884,41.4212596 C38.1489759,39.6541687 38.8192509,37.8039786 39.9141008,35.8239975 C40.9758758,33.8427824 42.458682,31.775177 43.9774319,29.6662277 C46.2731069,26.4804863 51.9593067,18.8602538 53.8668566,14.2951489 C54.8840774,11.5564453 54.8576532,9.64130218 54.1491901,8.21816287 C52.4030373,6.20115566 48.4011946,5.23089256 43.6316363,3.60986904 L42.3583514,4.55490164 L44.798279,7.00832795 C33.9040366,9.28808037 27.2178539,11.8699637 19.2580483,15.2246445 L20.3537088,18.6679092 L16.3577505,23.4423997 C17.0307291,23.6573853 23.9988124,26.4959772 31.2487963,20.3452496 C31.2487963,20.3452496 31.8124597,21.1617877 31.9236511,21.4058383 C26.2989899,26.3963421 19.9301818,27.0143269 14.3763338,24.6472238 L14.3763338,30.5404207 C11.6877995,31.7024943 6.87520823,35.3138836 6.91205136,38.8015431 C7.08883077,40.4780613 7.79679344,41.0802678 8.43394294,41.5125 C8.3215048,41.4966862 8.18683516,41.4436463 8.04412592,41.3664558 C8.30035035,41.552753 8.56537077,41.6950594 8.76217697,41.7228025 C14.872108,45.9417295 31.5076511,40.2154993 31.4754199,40.2154993 C25.4667389,43.9179363 19.7115203,46.8887306 10.8453956,47.3190361 C-0.704360186,47.0164647 -2.50526012,37.6729535 2.96848343,27.9011937 C8.1259895,18.0424266 16.3209954,9.12819237 29.3554137,3.57330267 C33.1330511,1.94155639 38.6793571,0.0882809649 44.0483069,0.00189076739 C51.7487067,-0.0855278848 59.2385064,2.84371688 58.7422127,11.8420787 Z" id="Combined-Shape"></path>
                </g>
            </g>
            <path d="M80.546875,39 L73.75,39 L84.1064453,9 L92.2802734,9 L102.62207,39 L95.8251953,39 L93.5986328,32.1591797 L82.7734375,32.1591797 L80.546875,39 Z M84.3847656,27.2080078 L92.0019531,27.2080078 L88.3105469,15.8554688 L88.0761719,15.8554688 L84.3847656,27.2080078 Z M112.348633,9 L112.348633,39 L106.108398,39 L106.108398,9 L112.348633,9 Z M117.329102,39 L117.329102,16.5 L123.569336,16.5 L123.569336,39 L117.329102,39 Z M120.463867,13.5996094 C119.545894,13.5996094 118.754886,13.2895539 118.09082,12.6694336 C117.426754,12.0493133 117.094727,11.3046918 117.094727,10.4355469 C117.094727,9.5664019 117.426754,8.82422183 118.09082,8.20898438 C118.754886,7.59374692 119.545894,7.28613281 120.463867,7.28613281 C121.391606,7.28613281 122.187497,7.59374692 122.851562,8.20898438 C123.515628,8.82422183 123.847656,9.5664019 123.847656,10.4355469 C123.847656,11.3046918 123.515628,12.0493133 122.851562,12.6694336 C122.187497,13.2895539 121.391606,13.5996094 120.463867,13.5996094 Z M147.270508,22.9160156 L141.557617,23.2675781 C141.401366,22.5449183 141.005863,21.9248073 140.371094,21.4072266 C139.736325,20.8896458 138.876959,20.6308594 137.792969,20.6308594 C136.826167,20.6308594 136.008304,20.8334941 135.339355,21.2387695 C134.690678,21.6317639 134.361107,22.151014 134.350633,22.7965344 L134.350586,22.8574219 C134.34082,23.3945339 134.55322,23.848631 134.987793,24.2197266 C135.422365,24.5908222 136.162104,24.8886708 137.207031,25.1132812 L141.279297,25.9335938 C145.60549,26.8222701 147.773437,28.8534998 147.783203,32.0273438 C147.783203,33.5019605 147.351079,34.7958929 146.486816,35.9091797 C145.622554,37.0224665 144.438484,37.8891571 142.93457,38.5092773 C141.430657,39.1293976 139.707041,39.4394531 137.763672,39.4394531 C134.785141,39.4394531 132.412118,38.8169008 130.644531,37.5717773 C128.876944,36.3266539 127.846681,34.6298936 127.553711,32.4814453 L133.691406,32.1591797 C133.88672,33.077153 134.338375,33.7705055 135.046387,34.2392578 C135.754398,34.7080102 136.665033,34.9423828 137.77832,34.9423828 C138.872076,34.9423828 139.753415,34.7275412 140.422363,34.2978516 C141.091312,33.8681619 141.430664,33.3212924 141.44043,32.6572266 C141.411133,31.5439397 140.449228,30.7968769 138.554688,30.4160156 L134.658203,29.6396484 C130.346268,28.7791949 128.178343,26.6697134 128.154367,23.3111416 L128.154297,23.2089844 C128.144531,21.0410048 129.011222,19.3320375 130.754395,18.0820312 C132.497567,16.832025 134.809556,16.2070312 137.69043,16.2070312 C140.532241,16.2070312 142.770988,16.8076112 144.406738,18.0087891 C146.042489,19.2099669 146.997069,20.8456928 147.270508,22.9160156 Z M163.691406,16.5 L163.691406,21.1875 L159.458008,21.1875 L159.458008,32.0859375 C159.458008,32.9453168 159.653318,33.5263657 160.043945,33.8291016 C160.434572,34.1318375 160.94238,34.2832031 161.567383,34.2832031 C161.860352,34.2832031 162.153319,34.2563479 162.446289,34.2026367 L163.120117,34.078125 L163.120117,34.078125 L164.101562,38.7216797 L163.985997,38.7568563 C163.683904,38.8465718 163.282976,38.9495916 162.783203,39.065918 C162.250112,39.1899995 161.608898,39.2686645 160.859545,39.3019149 L160.717773,39.3076172 C158.452137,39.4052739 156.633308,38.9145562 155.26123,37.8354492 C153.912021,36.7743274 153.230905,35.167904 153.217861,33.0161321 L153.217773,21.1875 L150.141602,21.1875 L150.141602,16.5 L153.217773,16.5 L153.217773,11.109375 L159.458008,11.109375 L159.458008,16.5 L163.691406,16.5 Z M171.601562,47.3935547 C170.810543,47.3935547 170.070804,47.3349615 169.382324,47.2177734 C168.693844,47.1005854 168.125002,46.9492197 167.675781,46.7636719 L169.082031,42.0908203 C170.185552,42.4326189 171.115719,42.52295 171.872559,42.3618164 C172.629398,42.2006828 173.227537,41.6123098 173.666992,40.5966797 L174.033203,39.6445312 L165.961914,16.5 L172.524414,16.5 L177.182617,33.0234375 L177.416992,33.0234375 L182.119141,16.5 L188.725586,16.5292969 L179.980469,41.4316406 C179.355466,43.2285246 178.383796,44.6713813 177.06543,45.7602539 C175.747064,46.8491265 173.925793,47.3935547 171.601562,47.3935547 Z M198.15918,9 L198.15918,39 L191.918945,39 L191.918945,9 L198.15918,9 Z M213.144531,16.2070312 C215.126963,16.2070312 216.916496,16.6269489 218.513184,17.4667969 C220.109871,18.3066448 221.376948,19.573722 222.314453,21.2680664 C223.251958,22.9624108 223.720703,25.0839716 223.720703,27.6328125 L223.720703,29.3466797 L208.398438,29.3466797 L208.398438,29.3613281 C208.398438,31.041024 208.857417,32.364253 209.775391,33.3310547 C210.693364,34.2978564 211.933586,34.78125 213.496094,34.78125 C214.541021,34.78125 215.444332,34.5615256 216.206055,34.1220703 C216.967777,33.682615 217.504881,33.0332074 217.817383,32.1738281 L223.588867,32.5546875 C223.149412,34.6445417 222.036142,36.3144469 220.249023,37.5644531 C218.461905,38.8144594 216.176772,39.4394531 213.393555,39.4394531 C211.088856,39.4394531 209.101571,38.9682664 207.431641,38.0258789 C205.76171,37.0834914 204.477544,35.7456141 203.579102,34.012207 C202.68066,32.2787999 202.231445,30.2255978 202.231445,27.8525391 C202.231445,25.5380744 202.68066,23.5068447 203.579102,21.7587891 C204.477544,20.0107334 205.744621,18.6484424 207.380371,17.671875 C209.016121,16.6953076 210.937489,16.2070312 213.144531,16.2070312 Z M213.24707,20.8652344 C211.860345,20.8652344 210.722661,21.3144486 209.833984,22.2128906 C208.945308,23.1113326 208.466797,24.2001889 208.398438,25.4794922 L208.398438,25.4794922 L217.84668,25.4794922 C217.836914,24.1415949 217.407231,23.0380903 216.557617,22.1689453 C215.708004,21.2998003 214.604499,20.8652344 213.24707,20.8652344 Z" id="Alistyle" fill="#FF5500" fill-rule="nonzero"></path>
        </g>
    </g>
</svg>